<?xml version="1.0" encoding="UTF-8" standalone="no"?>
<svg
   xmlns:dc="http://purl.org/dc/elements/1.1/"
   xmlns:cc="http://creativecommons.org/ns#"
   xmlns:rdf="http://www.w3.org/1999/02/22-rdf-syntax-ns#"
   xmlns:svg="http://www.w3.org/2000/svg"
   xmlns="http://www.w3.org/2000/svg"
   viewBox="0 0 236 334"
   height="334"
   width="236"
   version="1.1"
   id="svg3390">
  <metadata
     id="metadata3396">
    <rdf:RDF>
      <cc:Work
         rdf:about="">
        <dc:format>image/svg+xml</dc:format>
        <dc:type
           rdf:resource="http://purl.org/dc/dcmitype/StillImage" />
        <dc:title></dc:title>
      </cc:Work>
    </rdf:RDF>
  </metadata>
  <defs
     id="defs3394" />
  <path
     id="path3402"
     d="m 105.66394,238.28511 -0.26263,-35.72806 -4.66633,6.54 c -9.053176,12.68829 -27.530266,28.06615 -46.060686,38.33477 -2.865307,1.58781 -5.138596,3.02297 -6.852169,3.31853 0,0 -3.156831,-0.65469 -3.156831,-1.86891 0,0 4.94852,-2.82227 9.48602,-5.42441 12.50256,-7.16992 24.35866,-16.02291 33.37764,-24.92319 9.0207,-8.90199 17.204736,-20.80447 18.077016,-26.17968 0.3146,-1.93866 2.16586,-3.02159 2.78099,-2.81666 0,0 0.0904,12.44185 0.27521,42.30879 0.16547,26.74843 0.19386,40.19201 0.19386,40.19201 0,0 -2.20127,1.96267 -2.87825,1.85068 0,0 -0.14105,-12.09796 -0.31384,-35.60387 z m -11.762626,2.3013 c -2.475,-0.68635 -6.73502,-2.23894 -9.46671,-3.45021 l -4.96672,-2.20231 2.96672,-2.42202 c 1.63169,-1.33211 3.41671,-2.23604 3.96671,-2.00872 0.55,0.22732 4.2625,1.42521 8.25,2.66199 7.080876,2.19623 7.249996,2.32566 7.249996,5.54835 0,3.73771 -0.69164,3.89963 -7.999996,1.87292 z m 19.000006,-1.84445 c 0,-3.217 0.10288,-3.29075 6.20885,-4.45115 11.57358,-2.19947 24.35898,-10.16394 31.62311,-19.69913 l 2.22565,-2.92147 3.54149,1.68882 3.54149,1.68881 -3.14391,3.96951 c -7.93293,10.01614 -20.76414,18.25436 -33.45678,21.48078 -9.23578,2.34769 -10.5399,2.1304 -10.5399,-1.75617 z M 23.567983,227.34649 c -1.554741,-1.55474 -0.445941,-3.15226 2.583333,-3.72198 1.7875,-0.33618 6.051145,-1.93678 9.474767,-3.5569 22.437051,-10.61757 39.854501,-31.82128 48.313631,-58.81621 5.90817,-18.85424 6.213051,-22.18143 6.68032,-72.902588 0.314248,-34.110974 0.776998,-43.576201 0.962666,-46.889424 0,0 1.751399,-1.638772 2.63706,-2.227243 0.971623,1.477989 0.681554,12.549906 0.681554,64.549305 l 0,66.07826 2.73493,3.25028 c 8.287716,9.84939 55.913506,33.06435 93.004676,45.3347 5.64431,1.86723 9.16622,3.40807 9.16622,3.40807 l -1.83595,3.40917 c 0,0 -6.97425,-2.09208 -32.06987,-11.93721 -36.93657,-14.4904 -67.236986,-31.34236 -73.166826,-40.69267 -1.71188,-2.69934 -1.90381,-4.27637 -1.42679,-11.72345 0.30313,-4.73251 0.26142,-8.89429 -0.0927,-9.24841 -0.35412,-0.35412 -1.65131,3.34163 -2.88266,8.21277 -7.00701,27.71938 -29.41896,54.63889 -54.345794,65.27596 -6.698951,2.85865 -9.22474,3.39141 -10.418579,2.19757 z M 191.77454,204.69273 c -15.02274,-5.0637 -25.49364,-11.10262 -37.70137,-21.74368 -20.09219,-17.51366 -36.21924,-42.3253 -42.57549,-65.50286 l -2.44981,-8.93303 -0.0733,34.21862 c -0.0435,20.30757 -0.39061,31.96175 -0.39061,31.96175 0,0 -2.15032,1.61747 -2.57458,1.45467 0,0 -0.10809,-7.19218 -0.10809,-53.63504 0,-39.865019 0.0247,-53.259871 0.0247,-53.259871 0.69637,-0.637823 1.68272,-0.687181 2.62622,-0.567687 0,0 0.34906,2.54923 0.34906,6.807721 0,4.07957 0.67273,12.549294 1.49496,18.821616 4.8476,36.979611 23.9565,70.135581 52.97212,91.912291 9.93113,7.45348 18.28619,11.69634 31.07113,15.77852 13.27726,4.23938 14.14227,4.54675 14.14227,4.54675 l -2.12114,3.05076 c 0,0 -5.89443,-1.94713 -14.68612,-4.91053 z M 50.355844,197.76316 c -1.817993,-5.88092 -3.20982,-27.16517 -1.83208,-28.01666 2.315461,-0.48476 4.165693,0.0746 6.488646,0.53519 0,0 -0.111096,2.85159 -0.111096,6.32774 0,3.49971 0.730418,9.98809 1.62315,14.41861 0.916614,4.54905 1.589654,7.67098 1.589654,7.67098 -1.398466,2.25148 -3.355451,3.98189 -5.352427,5.71678 0,0 -1.360976,-3.27265 -2.405847,-6.65264 z M 166.14231,183.19581 c -2.68417,-2.20946 -3.26049,-3.3882 -3.26737,-6.68265 -0.0259,-12.40236 -5.72868,-25.93833 -15.19786,-36.07315 l -5.72423,-6.12663 c 0,0 3.8126,-3.04332 6.32753,-3.985 2.63972,1.01295 12.22152,13.51785 15.48219,20.20531 4.31123,8.84208 6.27851,17.96406 5.92798,27.4871 l -0.28923,7.85766 z"
     style="fill:#dddddd;stroke:#dddddd;stroke-width:2.5;stroke-linecap:square;stroke-linejoin:miter;stroke-miterlimit:4;stroke-dasharray:none;stroke-opacity:1;fill-opacity:1" />
</svg>
